<mxfile host="app.diagrams.net" modified="2021-07-25T14:08:16.820Z" agent="5.0 (Macintosh; Intel Mac OS X 10_14_5) AppleWebKit/537.36 (KHTML, like Gecko) Chrome/91.0.4472.114 Safari/537.36" etag="Z7yztueaaPowkZ6WCtG3" version="14.9.2" type="github">
  <diagram id="C5RBs43oDa-KdzZeNtuy" name="Page-1">
    <mxGraphModel dx="788" dy="538" grid="1" gridSize="10" guides="1" tooltips="1" connect="1" arrows="1" fold="1" page="1" pageScale="1" pageWidth="827" pageHeight="1169" math="0" shadow="0">
      <root>
        <mxCell id="WIyWlLk6GJQsqaUBKTNV-0" />
        <mxCell id="WIyWlLk6GJQsqaUBKTNV-1" parent="WIyWlLk6GJQsqaUBKTNV-0" />
        <mxCell id="3vqQnE7NTXeCE1aa1QC1-1" value="开始" style="shape=hexagon;perimeter=hexagonPerimeter2;whiteSpace=wrap;html=1;fixedSize=1;" vertex="1" parent="WIyWlLk6GJQsqaUBKTNV-1">
          <mxGeometry x="240" y="40" width="120" height="40" as="geometry" />
        </mxCell>
        <mxCell id="3vqQnE7NTXeCE1aa1QC1-2" value="结束" style="rounded=1;whiteSpace=wrap;html=1;arcSize=50;" vertex="1" parent="WIyWlLk6GJQsqaUBKTNV-1">
          <mxGeometry x="240" y="360" width="120" height="40" as="geometry" />
        </mxCell>
        <mxCell id="3vqQnE7NTXeCE1aa1QC1-3" value="步骤101" style="rounded=0;whiteSpace=wrap;html=1;" vertex="1" parent="WIyWlLk6GJQsqaUBKTNV-1">
          <mxGeometry x="240" y="120" width="120" height="40" as="geometry" />
        </mxCell>
        <mxCell id="3vqQnE7NTXeCE1aa1QC1-4" value="步骤102" style="rounded=0;whiteSpace=wrap;html=1;" vertex="1" parent="WIyWlLk6GJQsqaUBKTNV-1">
          <mxGeometry x="240" y="200" width="120" height="40" as="geometry" />
        </mxCell>
        <mxCell id="3vqQnE7NTXeCE1aa1QC1-5" value="步骤103" style="rounded=0;whiteSpace=wrap;html=1;" vertex="1" parent="WIyWlLk6GJQsqaUBKTNV-1">
          <mxGeometry x="240" y="280" width="120" height="40" as="geometry" />
        </mxCell>
        <mxCell id="3vqQnE7NTXeCE1aa1QC1-8" value="" style="curved=1;endArrow=none;html=1;strokeWidth=1;endFill=0;entryX=1;entryY=0.5;entryDx=0;entryDy=0;" edge="1" parent="WIyWlLk6GJQsqaUBKTNV-1" target="3vqQnE7NTXeCE1aa1QC1-3">
          <mxGeometry width="50" height="50" relative="1" as="geometry">
            <mxPoint x="400" y="130" as="sourcePoint" />
            <mxPoint x="390" y="160" as="targetPoint" />
            <Array as="points">
              <mxPoint x="390" y="150" />
              <mxPoint x="370" y="120" />
            </Array>
          </mxGeometry>
        </mxCell>
        <mxCell id="3vqQnE7NTXeCE1aa1QC1-9" value="101" style="text;html=1;strokeColor=none;fillColor=none;align=center;verticalAlign=middle;whiteSpace=wrap;rounded=0;" vertex="1" parent="WIyWlLk6GJQsqaUBKTNV-1">
          <mxGeometry x="394" y="120" width="40" height="20" as="geometry" />
        </mxCell>
        <mxCell id="3vqQnE7NTXeCE1aa1QC1-10" value="" style="curved=1;endArrow=none;html=1;strokeWidth=1;endFill=0;entryX=1;entryY=0.5;entryDx=0;entryDy=0;" edge="1" parent="WIyWlLk6GJQsqaUBKTNV-1">
          <mxGeometry width="50" height="50" relative="1" as="geometry">
            <mxPoint x="530" y="40" as="sourcePoint" />
            <mxPoint x="490" y="50" as="targetPoint" />
            <Array as="points">
              <mxPoint x="520" y="60" />
              <mxPoint x="500" y="30" />
            </Array>
          </mxGeometry>
        </mxCell>
      </root>
    </mxGraphModel>
  </diagram>
</mxfile>
